<svg width="48" height="48" viewBox="0 0 48 48" fill="none" xmlns="http://www.w3.org/2000/svg">
<rect x="23.726" y="4" width="28.6717" height="27.8968" rx="2" transform="rotate(45 23.726 4)" stroke="#FFFFFF" stroke-width="0.8"/>
<path d="M11.5868 25.2169C11.857 25.4019 12.138 25.5583 12.4296 25.6864C12.7283 25.8144 13.0484 25.8784 13.3898 25.8784C13.8734 25.8784 14.1152 25.6828 14.1152 25.2916C14.1152 25.1849 14.0868 25.0925 14.0299 25.0142C13.973 24.9289 13.8947 24.8542 13.7952 24.7902C13.7027 24.7262 13.5889 24.6693 13.4538 24.6195C13.3258 24.5697 13.1871 24.5199 13.0377 24.4701C12.8101 24.399 12.579 24.3137 12.3442 24.2141C12.1166 24.1145 11.9068 23.9829 11.7148 23.8194C11.5228 23.6487 11.3663 23.4388 11.2454 23.1899C11.1245 22.9339 11.064 22.6174 11.064 22.2404C11.064 21.8563 11.1387 21.5256 11.2881 21.2482C11.4445 20.9637 11.6472 20.729 11.8962 20.5441C12.1522 20.3592 12.4438 20.224 12.771 20.1387C13.1053 20.0462 13.4502 20 13.8058 20C14.2966 20 14.7127 20.0569 15.0541 20.1707C15.4026 20.2774 15.648 20.377 15.7902 20.4694C15.9324 20.5619 16.0391 20.6579 16.1103 20.7575C16.1885 20.857 16.2276 20.978 16.2276 21.1202C16.2276 21.2625 16.1849 21.4154 16.0996 21.579C16.0214 21.7354 15.8898 21.9381 15.7049 22.1871C15.5768 22.0946 15.4381 22.0164 15.2888 21.9524C15.1394 21.8812 14.9901 21.8208 14.8407 21.771C14.6984 21.7212 14.5598 21.6856 14.4246 21.6643C14.2895 21.6359 14.1721 21.6216 14.0726 21.6216C13.8378 21.6216 13.6565 21.6607 13.5285 21.739C13.4004 21.8172 13.3364 21.9275 13.3364 22.0697C13.3364 22.2191 13.4075 22.34 13.5498 22.4324C13.6992 22.5178 13.9019 22.6031 14.1579 22.6885C14.3926 22.7667 14.638 22.8556 14.894 22.9552C15.1501 23.0548 15.3812 23.1864 15.5875 23.3499C15.8009 23.5135 15.9751 23.7233 16.1103 23.9794C16.2454 24.2283 16.313 24.5484 16.313 24.9396C16.313 25.3663 16.2418 25.7397 16.0996 26.0598C15.9645 26.3798 15.7689 26.6465 15.5128 26.8599C15.2639 27.0733 14.9652 27.2298 14.6167 27.3293C14.2753 27.436 13.8983 27.4894 13.4858 27.4894C12.9737 27.4894 12.5434 27.4396 12.1949 27.34C11.8464 27.2475 11.5761 27.1409 11.3841 27.0199C11.256 26.9417 11.16 26.8457 11.096 26.7319C11.032 26.6181 11 26.4972 11 26.3692C11 26.1985 11.0605 26.01 11.1814 25.8037C11.3023 25.5975 11.4374 25.4019 11.5868 25.2169Z" fill="#FFFFFF"/>
<path d="M23.7606 23.7127C23.7606 24.239 23.693 24.7333 23.5579 25.1956C23.4298 25.6508 23.2271 26.0491 22.9498 26.3905C22.6724 26.7319 22.3132 27.0022 21.8722 27.2013C21.4384 27.3933 20.9192 27.4894 20.3146 27.4894C19.7101 27.4894 19.1944 27.3933 18.7677 27.2013C18.3409 27.0022 17.9889 26.7354 17.7115 26.4012C17.4412 26.0598 17.242 25.6615 17.114 25.2063C16.9931 24.744 16.9327 24.2497 16.9327 23.7233C16.9327 23.2184 17.0002 22.7418 17.1354 22.2937C17.2776 21.8386 17.491 21.4438 17.7755 21.1095C18.06 20.7681 18.4192 20.4979 18.853 20.2987C19.2869 20.0996 19.8025 20 20.4 20C20.9832 20 21.4882 20.096 21.9149 20.2881C22.3416 20.473 22.6901 20.7326 22.9604 21.0669C23.2307 21.394 23.4298 21.7852 23.5579 22.2404C23.693 22.6885 23.7606 23.1792 23.7606 23.7127ZM21.5735 23.7233C21.5735 23.4531 21.5522 23.1935 21.5095 22.9445C21.4668 22.6956 21.3957 22.4787 21.2961 22.2937C21.2037 22.1017 21.0827 21.9524 20.9334 21.8457C20.784 21.7319 20.6027 21.675 20.3893 21.675C20.1617 21.675 19.9661 21.7319 19.8025 21.8457C19.646 21.9524 19.518 22.1017 19.4184 22.2937C19.3189 22.4787 19.2442 22.6956 19.1944 22.9445C19.1517 23.1935 19.1304 23.4531 19.1304 23.7233C19.1304 24.0007 19.1517 24.2674 19.1944 24.5235C19.2442 24.7724 19.3153 24.9929 19.4078 25.1849C19.5073 25.377 19.6354 25.5299 19.7918 25.6437C19.9483 25.7575 20.1368 25.8144 20.3573 25.8144C20.5778 25.8144 20.7662 25.7575 20.9227 25.6437C21.0792 25.5299 21.2037 25.377 21.2961 25.1849C21.3957 24.9929 21.4668 24.7724 21.5095 24.5235C21.5522 24.2674 21.5735 24.0007 21.5735 23.7233Z" fill="#FFFFFF"/>
<path d="M28.7211 27.2973L28.1344 25.6117H26.3634L25.8193 27.2973H23.7069L26.0006 20.3094C26.1358 20.2525 26.3171 20.2027 26.5447 20.16C26.7723 20.1102 27.0213 20.0853 27.2915 20.0853C27.4053 20.0853 27.5334 20.0925 27.6756 20.1067C27.8179 20.1209 27.9565 20.16 28.0917 20.224C28.2268 20.2881 28.3513 20.3841 28.4651 20.5121C28.586 20.6401 28.6856 20.8144 28.7638 21.0349L30.8549 27.2973H28.7211ZM27.4729 22.9019C27.4373 22.7525 27.3947 22.5747 27.3449 22.3684C27.3022 22.1551 27.2773 21.9772 27.2702 21.835H27.2382C27.224 21.9844 27.1955 22.1657 27.1528 22.3791C27.1102 22.5925 27.0711 22.7632 27.0355 22.8912L26.6621 24.2461H27.825L27.4729 22.9019Z" fill="#FFFFFF"/>
<path d="M31.801 21.8777H29.7526C29.7384 21.7354 29.7278 21.6145 29.7206 21.5149C29.7135 21.4083 29.71 21.2945 29.71 21.1735C29.71 21.0597 29.7313 20.9424 29.774 20.8215C29.8167 20.6935 29.8842 20.5797 29.9767 20.4801C30.0763 20.3805 30.2007 20.2987 30.3501 20.2347C30.5066 20.1707 30.6986 20.1387 30.9262 20.1387H35.9618C35.976 20.2809 35.9867 20.4125 35.9938 20.5334C36.0009 20.6472 36.0045 20.7646 36.0045 20.8855C36.0045 21.0064 35.9867 21.1273 35.9511 21.2482C35.9155 21.362 35.8515 21.4652 35.7591 21.5576C35.6737 21.6501 35.5564 21.7283 35.407 21.7923C35.2576 21.8492 35.0692 21.8777 34.8416 21.8777H33.9561V27.2973H31.801V21.8777Z" fill="#FFFFFF"/>
</svg>
